<?xml version="1.0" encoding="UTF-8"?>
<svg width="752pt" height="752pt" version="1.1" viewBox="0 0 752 752" xmlns="http://www.w3.org/2000/svg">
 <path d="m389.73 276.58c-2.3516 0.16797-4.1953 2.5156-4.0273 4.8672v4.8672c-5.5391 0.33594-10.402 1.1758-14.766 1.6797-9.3984 0.67187-14.766-1.0078-23.156-3.8594v29.031c7.8867 2.8516 16.781 3.6914 23.996 3.0195 4.6992-0.50391 9.2305-1.1758 13.93-1.5117v14.094h-10.402c-2.1797 0.33594-3.8594 2.5156-3.8594 4.6992v33.059h-5.707c-2.1797 0.50391-3.8594 2.5156-3.8594 4.8672v28.359h-18.961v-56.887c0-2.3477-2.1797-4.6992-4.6992-4.6992-9.3984-0.50391-19.633 1.3438-25.676 7.0469-6.207 7.3828-7.3828 12.754-7.3828 21.312h-5.707c-2.1797 0.50391-3.8594 2.5156-3.8594 4.8672v28.359h-18.961v-18.961c0-2.5156-2.1797-4.6992-4.6992-4.6992h-13.762c-5.5391 0-10.402 1.5117-14.094 4.0273-9.3984-4.5312-19.297-10.066-28.863-13.762-2.1797 0.16797-4.0273 1.6797-4.5312 3.8594-0.50391 2.0117 0.67187 4.3633 2.6836 5.2031l24.164 12.25c-2.5156 4.8672-3.5234 10.57-3.5234 16.109v19.633h-18.961v-14.262c0-2.5156-2.1797-4.6992-4.6992-4.6992h-9.0625c-5.0352 0-9.5664 1.6797-13.426 4.3633-8.3906-4.1953-16.613-11.074-25.172-13.93-2.0117 0-4.0273 1.6797-4.3633 3.5234-0.50391 2.0117 0.50391 4.3633 2.3477 5.3711l20.309 12.078c-1.5078 2.3477-2.5156 4.8672-3.1875 7.5508h-14.766c-2.5195 0-4.8672 2.1797-4.8672 4.6992 1.6797 15.941 6.543 31.379 17.621 41.949 3.0195 3.0195 6.543 5.3711 10.906 5.3711h364.8c1.5117 0 2.8516-0.83984 3.8594-2.0117l37.758-52.188c2.0117-2.6836-0.33594-7.2148-3.8594-7.3828h-52.188c-0.67188-2.5156-1.8477-5.0352-3.1875-7.3828l24.332-12.082c2.0117-0.83984 3.1875-3.1875 2.6836-5.3711-0.50391-2.0117-2.5156-3.6914-4.6992-3.6914-9.7344 3.6914-19.465 9.3984-29.031 14.094-3.8594-2.8516-8.5586-4.3633-13.594-4.3633h-10.066c-2.1797 0.33594-3.8594 2.5156-3.6914 4.6992v14.094h-23.66c0-5.3711 0-10.906-0.16797-16.277l25.34-12.586c2.0117-1.0078 3.1875-3.3555 2.6836-5.3711-0.50391-2.1797-2.5156-3.6914-4.6992-3.6914-8.8945 3.1875-17.789 8.3906-26.512 12.754-1.1758-2.0117-2.5156-3.8594-4.1953-5.5391-4.3633-4.1953-10.234-7.0469-16.613-7.0469h-14.262v-23.996c0-6.207-3.0195-12.082-7.3828-16.277-4.3633-4.1953-10.234-7.0469-16.781-7.0469h-18.457v-47.32c0-4.8672-4.6992-4.8672-5.3711-4.8672zm-4.0273 19.129v9.5664c-5.5391 0.33594-10.406 1.1719-14.766 1.5078-4.5312 0.50391-8.8945-0.16797-13.762-1.3398v-8.8945c5.3711 0.83984 10.234 1.1758 14.598 0.67188 4.6992-0.50391 9.2305-1.1758 13.93-1.5117zm-4.8672 42.453h32.723c3.5234 0 7.2148 1.6797 10.066 4.5312 2.8516 2.6836 4.6992 6.375 4.6992 9.3984v14.43h-47.488zm-47.32 9.5664v18.793h-18.961c-0.83984-5.707 1.8477-10.57 4.5312-14.43 4.8672-4.0273 8.7266-4.3633 14.43-4.3633zm-28.359 28.359h28.359v23.66h-28.359zm66.281 0h56.887v47.32h-56.887v-47.32zm-113.27 9.3984h9.0625v14.262h-23.492c0.50391-3.6914 1.6797-6.8789 3.1875-9.2305 2.1797-3.1875 5.2031-5.0352 11.242-5.0352zm179.55 0h14.262c3.3555 0 7.2148 1.6797 10.066 4.5312 2.5156 2.3477 3.3555 5.0352 4.3633 7.7188 0.33594 5.3711 0.16797 10.738 0.16797 16.109h-11.746c-1.0078 0.33594-1.8477 0.83984-2.5156 1.6797l-6.8789 7.8867h-7.7188zm71.484 18.961c5.707-0.67187 10.57 1.8477 14.43 4.3633 1.5117 1.5117 2.6836 3.3555 3.5234 5.0352h-17.953zm-265.63 4.6992h118.3v14.262h-118.3zm-42.285 4.6992h4.3633v9.5664h-17.953c0.83984-1.8477 2.0117-3.5234 3.5234-5.0352 2.8516-2.8516 6.7109-4.5312 10.066-4.5312zm256.57 9.5664h122.16l-31.043 42.621h-362.29c-11.41-7.2148-16.613-21.312-18.289-33.227h279.06c1.3438 0 2.6836-0.50391 3.5234-1.6797z"/>
</svg>
