<?xml version="1.0" encoding="UTF-8"?>
<svg width="752pt" height="752pt" version="1.1" viewBox="0 0 752 752" xmlns="http://www.w3.org/2000/svg">
 <g>
  <path d="m242.43 261.32c-1.8828 0.18359-3.3242 1.7617-3.3359 3.6523v29.617c-0.003906 0.98438 0.38672 1.9297 1.082 2.6289 0.69922 0.69922 1.6445 1.0859 2.6328 1.082h11.098v36.984h-25.898c-0.98828-0.003906-1.9336 0.38672-2.6328 1.0859-0.69531 0.69531-1.0859 1.6445-1.082 2.6289v25.883l-11.086 0.003906c-0.12891-0.007813-0.25781-0.007813-0.38672 0-1.9023 0.19141-3.3438 1.8008-3.3242 3.7109v25.898l-40.699 0.003906c-0.11328-0.007812-0.22266-0.007812-0.33203 0-1.0312 0.089844-1.9766 0.60547-2.6055 1.4219-0.63281 0.82031-0.89453 1.8633-0.71875 2.8828l14.801 88.766-0.003906 0.003906c0.29297 1.793 1.8398 3.1094 3.6562 3.1055h355.23c1.3789-0.007813 2.6367-0.78125 3.2656-2.0078l44.414-88.824c0.57031-1.1484 0.50781-2.5117-0.17188-3.6016-0.67578-1.0898-1.8711-1.75-3.1523-1.7461h-26.273c-0.76562-6.8008-3.5352-12.953-7.7773-17.891l35.625-20.625c1.7617-1.0156 2.375-3.2617 1.375-5.0312l-7.3867-12.832c-0.70312-1.2227-2.0352-1.9414-3.4414-1.8516-0.57422 0.035156-1.1328 0.20312-1.6328 0.49219l-48.852 28.211c-0.28125-0.007812-0.53125-0.082031-0.80859-0.082031-17.078 0-31.059 13.023-32.938 29.613h-22.938c-0.77344-6.8086-3.543-12.965-7.8047-17.906l35.652-20.609 0.007813-0.003907c1.7617-1.0117 2.375-3.2578 1.3711-5.0273l-7.4297-12.832v-0.003906c-0.69141-1.1992-1.9961-1.9141-3.3789-1.8516-0.58203 0.035156-1.1445 0.20312-1.6484 0.49219l-48.852 28.211c-0.28906-0.007812-0.55859-0.082031-0.85156-0.082031-17.078 0-31.074 13.023-32.953 29.613h-37.344v-25.898c0.003906-0.98828-0.38672-1.9336-1.082-2.6289-0.69922-0.69922-1.6445-1.0898-2.6328-1.0859h-11.098v-25.883c0-0.98828-0.38672-1.9336-1.0859-2.6328-0.69531-0.69531-1.6445-1.0859-2.6289-1.082h-70.238v-36.984h11.086-0.003906c2.0352-0.023438 3.6641-1.6836 3.6562-3.7148v-29.613c-0.023438-2.0078-1.6445-3.6328-3.6562-3.6562h-44.41c-0.125-0.007813-0.25-0.007813-0.375 0zm4.0898 7.3711h36.984v22.184h-36.98zm14.812 29.613h7.3711v36.984l-7.3672-0.003907zm-29.613 44.414h111v22.172l-110.99-0.003906zm253.67 2.3398 3.6719 6.3867-34.41 19.859c-2.3203-1.6875-4.8438-3.0703-7.5586-4.1172zm88.77 0 3.7148 6.3867-34.398 19.859c-2.3477-1.707-4.9102-3.0938-7.6602-4.1484zm-138.96 27.191 0.003906 0.011719c0.89844 0 1.7383 0.16797 2.6016 0.25 0.91016 0.082031 1.8242 0.19531 2.7148 0.39062 10.121 2.3125 17.316 11.059 19.047 21.594l-48.734-0.007812c2.0234-12.305 11.473-22.242 24.367-22.242zm88.812 0.003906v0.007813c1.2773 0 2.4961 0.16797 3.6992 0.35938 0.43359 0.054688 0.87109 0.11328 1.3008 0.19531 10.293 2.1953 17.621 11.027 19.367 21.68h-48.719c2.0234-12.305 11.457-22.242 24.352-22.242zm-307.09 0.054688h140.59v22.184l-140.59-0.003906zm-43.762 29.555h231.78v-0.003907c0.21094 0.039063 0.42969 0.058594 0.64844 0.058594h59.211c0.20703-0.003906 0.41406-0.023437 0.62109-0.058594h28.328c0.21875 0.039063 0.44141 0.058594 0.66406 0.058594h59.211c0.18359-0.007813 0.36719-0.027344 0.55078-0.058594h23.051l-40.699 81.441h-349.75z"/>
  <path d="m228 424.1c-10.172 0-18.516 8.3398-18.516 18.512s8.3398 18.469 18.516 18.469c10.172 0 18.516-8.2969 18.516-18.469s-8.3398-18.512-18.516-18.512zm0 7.3711c6.1719 0 11.086 4.9688 11.086 11.145 0 6.1719-4.9102 11.102-11.086 11.102-6.1758 0-11.086-4.9258-11.086-11.102s4.9102-11.145 11.086-11.145z"/>
  <path d="m287.21 424.1c-10.172 0-18.516 8.3398-18.516 18.512s8.3398 18.469 18.516 18.469c10.172 0 18.469-8.2969 18.469-18.469s-8.2969-18.512-18.469-18.512zm0 7.3711c6.1719 0 11.086 4.9688 11.086 11.145 0 6.1719-4.9102 11.102-11.086 11.102-6.1758 0-11.086-4.9258-11.086-11.102s4.9102-11.145 11.086-11.145z"/>
  <path d="m346.43 424.1c-10.172 0-18.512 8.3398-18.512 18.512s8.3398 18.469 18.512 18.469 18.469-8.2969 18.469-18.469-8.2969-18.512-18.469-18.512zm0 7.3711c6.1719 0 11.086 4.9688 11.086 11.145 0 6.1719-4.9102 11.102-11.086 11.102-6.1719 0-11.145-4.9258-11.145-11.102s4.9688-11.145 11.145-11.145z"/>
 </g>
</svg>
