<?xml version="1.0" encoding="UTF-8"?>
<svg width="752pt" height="752pt" version="1.1" viewBox="0 0 752 752" xmlns="http://www.w3.org/2000/svg">
 <defs>
  <clipPath id="a">
   <path d="m139.21 149h473.58v454h-473.58z"/>
  </clipPath>
 </defs>
 <g clip-path="url(#a)">
  <path d="m519.51 221.73h14.352c11.887 0 21.523 9.6367 21.523 21.523v50.23h7.1758c11.891 0 21.527 9.6367 21.527 21.527v64.578h21.527c3.9609 0 7.1758 3.2109 7.1758 7.1758v71.754c0 1.3438-0.37891 2.6641-1.0898 3.8047l-29.02 46.422h22.934c3.9609 0 7.1758 3.2148 7.1758 7.1758 0 3.9648-3.2148 7.1758-7.1758 7.1758h-459.23c-3.9648 0-7.1758-3.2109-7.1758-7.1758 0-3.9609 3.2109-7.1758 7.1758-7.1758h50.227v-32.676l-53.57-48.09c-1.4375-1.293-2.2969-3.1133-2.375-5.0469l-1.4492-35.879c-0.16797-4.0742 3.0898-7.4648 7.168-7.4648h294.2v-64.578c0-11.891 9.6367-21.527 21.523-21.527h7.1758v-50.23c0-11.887 9.6406-21.523 21.527-21.523h14.352v-64.582c0-3.9609 3.2109-7.1758 7.1758-7.1758 3.9609 0 7.1758 3.2148 7.1758 7.1758zm-365.65 172.21 1.0273 25.383 53.695 48.207c1.5156 1.3594 2.3828 3.3008 2.3828 5.3398v35.875h354.8l32.68-52.285v-62.52zm415.88-14.352v-64.578c0-3.9648-3.2109-7.1758-7.1758-7.1758h-100.46c-3.9609 0-7.1758 3.2109-7.1758 7.1758v64.578zm-28.699-86.105v-50.23c0-3.9609-3.2148-7.1758-7.1758-7.1758h-43.055c-3.9609 0-7.1758 3.2148-7.1758 7.1758v50.23zm-236.79 308.54c-3.9609 0-7.1758-3.2109-7.1758-7.1758 0-3.9609 3.2148-7.1719 7.1758-7.1719h143.51c3.9609 0 7.1719 3.2109 7.1719 7.1719 0 3.9648-3.2109 7.1758-7.1719 7.1758zm-24.43-307.96 64-35.555c3.4609-1.9219 7.832-0.67578 9.7539 2.7891 1.9258 3.4648 0.67969 7.832-2.7852 9.7578l-53.504 29.723 35.617 13.699 33.262-13.305c3.6797-1.4727 7.8555 0.31641 9.3281 3.9961 1.4727 3.6797-0.31641 7.8555-3.9961 9.3281l-35.879 14.352c-1.6797 0.67188-3.5508 0.68359-5.2422 0.035156l-93.281-35.879c-3.6953-1.4219-5.543-5.5742-4.1211-9.2734 1.4258-3.6953 5.5742-5.543 9.2734-4.1211z"/>
 </g>
</svg>
