<?xml version="1.0" encoding="UTF-8"?>
<svg width="752pt" height="752pt" version="1.1" viewBox="0 0 752 752" xmlns="http://www.w3.org/2000/svg">
 <g>
  <path d="m576.83 386.68c-23.172-16.613-50.977-25.523-79.488-25.473h-10.344v-51.801c0-4.0859-3.3125-7.3984-7.3984-7.3984h-7.3984v-36.996c0-4.0898-3.3164-7.4023-7.4023-7.4023h-22.199c-4.0859 0-7.3984 3.3125-7.3984 7.4023v37h-7.3984v-29.602h-14.801v29.598h-7.3984v-29.598h-14.801v29.598h-14.801c-4.0859 0-7.3984 3.3125-7.3984 7.3984v51.797l-103.59 0.003906c-1.4609 0-2.8906 0.42969-4.1055 1.2422l-60.773 40.516-18-24c-1.3984-1.8633-3.5898-2.9609-5.918-2.9609h-14.801c-4.0859 0-7.3984 3.3164-7.3984 7.4023v88.797c0 4.0859 3.3125 7.3984 7.3984 7.3984h14.801c2.3281 0 4.5195-1.0977 5.918-2.9609l18-24 60.773 40.516c1.2148 0.8125 2.6445 1.2422 4.1055 1.2461h232.33c28.512 0.050781 56.32-8.8633 79.488-25.477 13.281-9.4844 21.164-24.801 21.164-41.121 0-16.324-7.8828-31.641-21.164-41.125zm-126.83-114.27h7.3984v29.598h-7.3984zm-66.598 44.398h88.797v44.398h-88.797zm-192.39 123.33-18.5 24.664h-3.6992v-73.996h3.6992l18.5 24.664zm76.238 39.465-22.199-14.801h310.53c-17.863 9.7461-37.891 14.836-58.238 14.801zm308.19-29.598h-352.59l-17.039-11.359v-21.68l61.438-40.961h230.09c25.426-0.042969 50.223 7.9023 70.887 22.719 7.9727 5.6875 13.254 14.398 14.617 24.09 1.3633 9.6953-1.3125 19.527-7.4062 27.191z"/>
  <path d="m398.2 331.6h14.801v14.801h-14.801z"/>
  <path d="m427.8 331.6h14.801v14.801h-14.801z"/>
  <path d="m479.6 390.8h14.801v14.801h-14.801z"/>
  <path d="m501.8 390.8h14.801v14.801h-14.801z"/>
  <path d="m413 390.8h14.801v14.801h-14.801z"/>
  <path d="m390.8 390.8h14.801v14.801h-14.801z"/>
  <path d="m435.2 390.8h14.801v14.801h-14.801z"/>
  <path d="m316.8 390.8h14.801v14.801h-14.801z"/>
  <path d="m294.61 390.8h14.801v14.801h-14.801z"/>
  <path d="m272.41 390.8h14.801v14.801h-14.801z"/>
  <path d="m339 390.8h14.801v14.801h-14.801z"/>
 </g>
</svg>
