<?xml version="1.0" encoding="UTF-8"?>
<svg width="752pt" height="752pt" version="1.1" viewBox="0 0 752 752" xmlns="http://www.w3.org/2000/svg">
 <g fill="#930b1b">
  <path d="m482.6 362.25-0.90625-0.85547c-0.3125-0.36719-0.64453-0.71875-1-1.0469l3.1875-3.5664 0.61719 0.57031 36.34-1.7109 0.003906-0.003906c11.258-7.4375 20.324-17.75 26.258-29.871l0.28516-0.71484 0.90234-0.33203c9.2031-5.332 14.887-15.145 14.938-25.781-0.13672-6.9727-2.625-13.695-7.0625-19.074-4.4414-5.3789-10.566-9.1016-17.387-10.559-1.3828-0.28125-2.5664-1.1602-3.2383-2.3984-0.66797-1.2422-0.75781-2.7148-0.23437-4.0234 1.0273-3.0664 1.5586-6.2812 1.5703-9.5156-0.22656-8.3203-3.7422-16.215-9.7773-21.949-6.0391-5.7344-14.102-8.8398-22.426-8.6367-3.2266 0.007813-6.4375 0.50781-9.5156 1.4766l-2.1406 0.71484-0.80859-2.1406c-2.4062-6.0391-6.5859-11.203-11.984-14.82-5.4023-3.6172-11.77-5.5156-18.266-5.4453-5.4805 0.003907-10.871 1.3633-15.699 3.9492l-3.9023 2.0938 0.37891-4.375v-2.9492l0.003906-0.003906c-0.60156-11.07-6.8594-21.055-16.562-26.426-9.7031-5.3672-21.484-5.3672-31.188 0-9.7031 5.3711-15.957 15.355-16.562 26.426h-4.7578 0.003906c-0.13672-8.0703-3.3906-15.773-9.0859-21.496-5.6953-5.7188-13.383-9.0117-21.453-9.1836-5.9023-0.17969-11.742 1.2773-16.871 4.207-5.1289 2.9297-9.3477 7.2188-12.191 12.395-5.2812 9.1328-4.7578 12.844-4.7578 16.793l0.33203 4.3281-3.8047-1.9492v-0.003906c-4.8633-2.5898-10.285-3.9453-15.793-3.9453-6.4961-0.058594-12.855 1.8438-18.254 5.4609-5.3984 3.6133-9.5781 8.7734-12 14.801l-0.71094 2.1406-2.1406-0.66406c-3.0781-0.96875-6.2891-1.4688-9.5156-1.4766-8.3711-0.25391-16.5 2.8398-22.582 8.5977-6.0781 5.7617-9.6133 13.711-9.8086 22.082 0.027344 2.9375 0.47266 5.8516 1.332 8.6602 0.50781 1.5781 0.35547 3.293-0.42969 4.7539-0.77344 1.457-2.1172 2.5234-3.7109 2.9492-9.125 2.1719-16.73 8.4531-20.582 17.008-3.8555 8.5508-3.5234 18.41 0.89844 26.684 4.4219 8.2734 12.43 14.027 21.684 15.578h1.0469l0.52344 0.95312h-0.003906c4.2344 7.1992 9.6523 13.633 16.031 19.027l27.445 5.1836c5.7188-5.7578 11.906-11.023 18.504-15.746l2.7578 3.8516 0.003906 0.003906c-6.7109 4.7969-12.98 10.176-18.742 16.078l-0.90234 0.90234-31.301-5.6602-0.47656-0.42969c-6.7383-5.6758-12.492-12.426-17.027-19.977-10.48-2.1211-19.414-8.9258-24.25-18.461-4.832-9.5391-5.0352-20.766-0.55078-30.473 4.4844-9.707 13.164-16.824 23.562-19.328 0.32812-0.089844 0.60156-0.3125 0.76172-0.61719 0.14062-0.33203 0.14062-0.71094 0-1.0469-0.90625-3.2188-1.3555-6.5469-1.332-9.8945 0.22266-9.582 4.2422-18.688 11.172-25.312 6.9258-6.625 16.203-10.234 25.789-10.027 3.043-0.011719 6.0781 0.35547 9.0352 1.0938 3.0273-6.4102 7.8242-11.824 13.824-15.598 6-3.7773 12.957-5.7578 20.043-5.7148 4.8945 0.019531 9.7383 0.97266 14.273 2.8086 0.42188-5.5977 2.2891-10.992 5.4219-15.648 4.4688-8.1328 11.852-14.266 20.664-17.168 8.8125-2.9023 18.395-2.3555 26.82 1.5273 8.4258 3.8828 15.066 10.812 18.586 19.398 2.793-6.832 7.5625-12.668 13.699-16.766 6.1406-4.0938 13.363-6.2578 20.738-6.2109 9.4727-0.18359 18.637 3.3477 25.535 9.8398 6.8984 6.4883 10.984 15.422 11.379 24.883 4.5312-1.8438 9.375-2.7969 14.27-2.8047 7.0898-0.058594 14.051 1.9219 20.055 5.6992 6 3.7734 10.797 9.1914 13.812 15.609 2.957-0.72656 5.9922-1.0938 9.0391-1.0938 9.6562-0.28125 19.027 3.3125 26.023 9.9766 6.9961 6.6641 11.035 15.848 11.223 25.508-0.015626 3.7891-0.64063 7.5469-1.8555 11.133l0.28516 0.33203c7.793 1.7695 14.766 6.1094 19.797 12.324 5.0273 6.2109 7.8242 13.934 7.9336 21.926-0.023438 12.047-6.3125 23.219-16.602 29.492-6.4336 12.801-16.129 23.68-28.109 31.535l-0.57031 0.37891z"/>
  <path d="m382.61 517.99-0.80859-8.418c-0.58203-4.832-2.9102-9.2812-6.543-12.516-3.6367-3.2344-8.332-5.0234-13.199-5.0352-4.0742-0.011719-8.0469 1.25-11.367 3.6133l-3.7578 2.6641v-64.406l-3.9961-1.5703c-1.8359 1.7422-4.5156 2.2617-6.8711 1.3359-2.3555-0.92969-3.9609-3.1367-4.1172-5.6641-2.7461 1.4883-6.1211 1.1406-8.5039-0.88281-2.3789-2.0234-3.2734-5.3008-2.2461-8.25l-0.37891-0.33203c-2.7695 1.5078-6.168 1.2266-8.6484-0.71875-2.4844-1.9414-3.5703-5.1758-2.7695-8.2227-0.78125 0.16406-1.5781 0.24219-2.3789 0.23437-3.8594 0-7.4414-2.0039-9.4688-5.2891-2.0234-3.2852-2.2031-7.3867-0.47266-10.836-3.8555-0.23047-7.4805-1.9219-10.133-4.7344-2.6523-2.8086-4.1328-6.5273-4.1367-10.391l-0.90234-10.559c-3.9648-0.57422-7.5586-2.6562-10.027-5.8086-2.4688-3.1562-3.625-7.1406-3.2305-11.129 0.39844-3.9883 2.3164-7.668 5.3594-10.273v-1.332c0-2.7422 0.72656-5.4375 2.1055-7.8125 1.3789-2.3711 3.3594-4.3359 5.7461-5.6953-0.039063-0.60156-0.039063-1.207 0-1.8086 0.011718-3.3594 1.1055-6.625 3.1172-9.3164 2.0156-2.6875 4.8398-4.6602 8.0586-5.6211v-0.71484 0.003906c-0.18359-4.9766 2.3008-9.6719 6.5195-12.32 3.582-2.1484 7.9297-2.6172 11.891-1.2852v-0.85547c0-7.6719 6.2188-13.891 13.891-13.891 2.1758 0.007812 4.3242 0.51172 6.2773 1.4766 0.96875-5.2266 4.832-9.4375 9.9531-10.855 5.1211-1.4141 10.602 0.21094 14.117 4.1953 2.0664-4.5469 6.4219-7.6289 11.398-8.0625 4.9766-0.43359 9.8008 1.8477 12.621 5.9688 2.5508-4.2852 7.1992-6.8711 12.184-6.7852 4.9844 0.089844 9.5391 2.8438 11.934 7.2148 3.6406-2.043 8.0039-2.3477 11.895-0.82422 3.8867 1.5195 6.8906 4.7031 8.1797 8.6719 1.6484-0.66797 3.4062-1.0039 5.1836-1 3.6836 0 7.2188 1.4648 9.8203 4.0703 2.6055 2.6016 4.0703 6.1367 4.0703 9.8203v0.28516h2.2344c7.8828 0 14.27 6.3906 14.27 14.27v0.71484c3.2227 0.96094 6.0469 2.9297 8.0586 5.6211 2.0156 2.6875 3.1094 5.9531 3.1211 9.3164 0.035156 0.60156 0.035156 1.2031 0 1.8047 2.3828 1.3594 4.3672 3.3242 5.7422 5.6992 1.3789 2.3711 2.1055 5.0664 2.1055 7.8125v1.332c3.4648 2.9375 5.4648 7.25 5.4727 11.797 0 3.9023-1.4648 7.6641-4.1094 10.535-2.6445 2.875-6.2695 4.6484-10.16 4.9688l-2.8555 4.7578c0.14844 3.7227-1.0781 7.3711-3.4453 10.25-2.3711 2.8789-5.7148 4.7812-9.3984 5.3516 0.90625 1.4414 1.4727 3.0664 1.6641 4.7578 0.26562 2.9375-0.64062 5.8594-2.5195 8.1328-1.875 2.2695-4.582 3.6914-7.5156 3.9492-0.79297 0.085937-1.5898 0.085937-2.3789 0 1.0195 2.625 0.52734 5.5977-1.2852 7.7539-2.1914 2.6836-5.8828 3.6094-9.0859 2.2812l-0.47656 0.47656h0.003907c0.33984 0.75 0.55078 1.5547 0.61719 2.3789 0.19141 1.9961-0.42578 3.9844-1.7109 5.5195-2.168 2.5703-5.7734 3.4062-8.8477 2.043 0.14063 3.4453-2.4219 6.4062-5.8516 6.7539-0.96875 0.085937-1.9414-0.042969-2.8555-0.37891v73.016l-3.6133-2.1875c-4.0469-2.5039-8.9766-3.1484-13.527-1.7617-4.5547 1.3828-8.2891 4.6602-10.258 8.9922zm-20.785-30.73v0.003907c5.0312 0.003906 9.9414 1.5469 14.074 4.418 4.1328 2.875 7.2852 6.9414 9.043 11.66 2.8867-3.2969 6.6992-5.6445 10.945-6.7383 4.2422-1.0977 8.7148-0.88672 12.836 0.60156v-70.828l4.043-2.2852 1.332 2.3789c0.22656 0.92188 1.1523 1.4844 2.0703 1.2617 0.91797-0.22266 1.4844-1.1484 1.2617-2.0703-0.023438-0.29688-0.14062-0.57812-0.33203-0.80859l-2-2.0898 2.5195-1.5703c0.69531-0.41797 1.3633-0.87891 2-1.3789l1.9492-1.5703 1.4727 2.0469 0.003906-0.003906c0.57422 0.80469 1.5352 1.2422 2.5195 1.1445 0.72266-0.054688 1.3906-0.39844 1.8555-0.95313 0.47266-0.57031 0.69531-1.3086 0.61719-2.0469-0.039062-0.58984-0.29297-1.1484-0.71094-1.5664l-1.668-1.7617 1.8086-1.6172c1.0469-0.95312 2.0469-1.9023 2.9961-2.9492l1.5234-1.6641 1.7617 1.4258c0.59766 0.49609 1.3672 0.73438 2.1406 0.66797 0.83594-0.078125 1.6055-0.49219 2.1367-1.1445 0.53516-0.63281 0.79297-1.457 0.71484-2.2812-0.10547-0.76953-0.47656-1.4727-1.0469-2l-1.4727-1.3789 1.6172-2.332 0.76172-1.0938 1.1406-1.8086 1.9492 0.95312c1.0195 0.49219 2.1562 0.6875 3.2812 0.57031 1.6797-0.14844 3.2227-0.97266 4.2812-2.2812 1.0938-1.332 1.6094-3.043 1.4297-4.7578-0.22656-1.9453-1.3086-3.6914-2.9492-4.7539l-1.7617-1.1406 0.95312-1.9023v-0.003906c0.011719-0.1875 0.011719-0.37891 0-0.57031l0.66406-1.9492 1.9961 0.37891h0.003906c0.88281 0.11719 1.7773 0.11719 2.6602 0 2.7695-0.23047 5.3281-1.5547 7.1172-3.6797 1.7852-2.125 2.6484-4.875 2.3984-7.6406v-0.80859l5.043-8.0391h1.332c3.9531 0.046875 7.6133-2.0938 9.5117-5.5664 0.89062-1.6016 1.3672-3.3984 1.3789-5.2305-0.03125-3.5547-1.8125-6.8594-4.7539-8.8477l-1.332-0.95312 0.37891-1.5703c0.070312-0.58203 0.070312-1.1719 0-1.7578-0.007813-4.3672-2.6328-8.3047-6.6602-9.9883l-1.8555-0.76172 0.47656-1.9492c0.21094-0.84375 0.32031-1.7031 0.33203-2.5703-0.027344-5.4531-4.1016-10.035-9.5117-10.703l-2.5703-0.33203 0.57031-2.5195v-0.003906c0.074219-0.67969 0.074219-1.3633 0-2.043 0-2.5234-1-4.9453-2.7852-6.7266-1.7852-1.7852-4.2031-2.7891-6.7266-2.7891h-1.7617c-0.56641 0.10156-1.125 0.26172-1.6641 0.47656l-5.707 2.4258 1.6641-4.7578c0.3125-0.94922 0.47266-1.9453 0.47656-2.9492 0-2.4219-0.96094-4.7422-2.6758-6.457-1.7109-1.7109-4.0352-2.6758-6.457-2.6758-1.957-0.015625-3.8672 0.62109-5.4219 1.8086l-3.5664 2.7578-0.23828-4.7578-0.003907 0.003906c-0.25-4.8672-4.2578-8.6875-9.1328-8.707-1.8906-0.015625-3.7383 0.56641-5.2773 1.668 0.046875 0.66406 0.046875 1.332 0 1.9961 0.03125 0.46094 0.03125 0.92188 0 1.3789l-0.37891 2.9961-2.8047-1.0938-2.5195-0.90234-2.1445-0.28516 1.3789-2.5195v-0.003906c0.48047-0.89453 1.0547-1.7422 1.7109-2.5195-1.4688-3.4766-4.9219-5.6914-8.6953-5.5742-3.7695 0.11328-7.082 2.5391-8.332 6.0977l-0.61719 1.7109h-5.3789l-0.47656-1.9492c-1.5586-3.5508-5.2031-5.7188-9.0703-5.3984-3.8633 0.32422-7.1016 3.0664-8.0508 6.8242l-0.37891 1.4727-1.4727 0.28516-1.1875 0.33203-2.1406 0.71484-1.0039-1.5664c-2.0898-3.5977-6.3477-5.3281-10.355-4.2109-4.0078 1.1211-6.7539 4.8086-6.6758 8.9688-0.023437 0.36328-0.023437 0.73047 0 1.0938l2.1406 2.1406-2.8555 1.5703-2.5195 2.4727-1-3.5664v-0.42969c-1.7344-1.6484-4.0273-2.582-6.4219-2.6172-3.5117 0.023437-6.7031 2.0469-8.2227 5.2148s-1.0938 6.9219 1.0898 9.6758l1.3789 1.7109-3.5195 3.3789-1.6641-2.1406c-2.9023-3.8047-8.1758-4.8672-12.32-2.4766-2.9258 1.6211-4.7461 4.6953-4.7578 8.0391-0.074219 0.67969-0.074219 1.3672 0 2.0469l0.57031 2.5195-2.5703 0.33203 0.003906 0.003906c-5.4102 0.66797-9.4844 5.25-9.5156 10.703 0.011719 0.86328 0.125 1.7266 0.33203 2.5664l0.47656 1.9492-1.6172 0.71484c-4.0273 1.6836-6.6523 5.6211-6.6602 9.9883-0.03125 0.37891-0.03125 0.76172 0 1.1406l0.28516 1.5234-1.0938 1.6172c-3.8516 2.6953-5.5195 7.5781-4.1172 12.066 1.4023 4.4922 5.5508 7.5547 10.254 7.5781h2.1875l1.2383 14.984c-0.039063 2.793 1.0391 5.4844 2.9961 7.4766 1.957 1.9922 4.6289 3.1211 7.4219 3.1328 1.2539 0.019531 2.4961-0.20703 3.6602-0.66797l2.5195-1.0469 0.66406 2.6641 1.0469 2.0469-1.9492 1.1875h0.003907c-2.0234 1.1016-3.2812 3.2188-3.2812 5.5195 0 3.5195 2.8516 6.375 6.3711 6.375 1.2812 0.003906 2.5312-0.39453 3.5703-1.1445l1.9023-1.3789 1.4258 1.8555 1.2852 1.5703 1.4727 1.8086-1.7617 1.5234 0.003906-0.003906c-0.66016 0.57812-1.043 1.4102-1.0469 2.2852 0 1.7344 1.4062 3.1406 3.1406 3.1406 0.84375 0 1.6484-0.34375 2.2344-0.95312l1.6172-1.7109 1.7109 1.6172c0.96484 0.92969 1.9805 1.8047 3.0469 2.6133l1.9961 1.5234-1.6172 1.9023c-0.35938 0.46094-0.54297 1.0352-0.52344 1.6172-0.011719 0.73828 0.27344 1.4453 0.79297 1.9648 0.52344 0.52344 1.2305 0.80859 1.9688 0.79688 0.92578 0.019531 1.8008-0.42969 2.3281-1.1914l1.2852-1.8555 1.9023 1.1406 2.2344 1.2852 2.0469 1.1406-1.0938 2.0469c-0.14844 0.26172-0.23047 0.55469-0.23828 0.85547 0 0.46484 0.1875 0.90625 0.51953 1.2305 0.33203 0.32031 0.77734 0.49609 1.2422 0.48438 0.63672 0.015625 1.2305-0.33594 1.5195-0.90625l1-2.1875 2.1875 1c2.332 1.0469 4.7578 1.9961 6.8984 2.7109l1.6172 0.52344v59.172c3.2617-1.5195 6.8164-2.3008 10.418-2.2812z"/>
  <path d="m376 485.88c-10.465 0-20.93-0.33203-31.156-0.95312-50.039-3.2344-100.51-15.031-100.51-34.438 0-14.27 27.73-26.16 74.207-32.012l0.61719 4.7578c-48.426 6.1328-70.07 18.074-70.07 27.254 0 11.465 33.676 25.734 96.039 29.684 20.594 1.2578 41.246 1.2578 61.84 0 62.359-3.9492 96.039-18.219 96.039-29.684 0-9.5117-24.164-22.453-77.156-28.113l0.52344-4.7578c39.34 4.2344 81.434 15.078 81.434 32.867 0 19.406-50.469 31.25-100.51 34.438-10.316 0.625-20.734 0.95703-31.297 0.95703z"/>
  <path d="m502.05 536.73c0 13.508-3.9961 29.871-16.887 31.918h-195.03l-18.457 0.76172h0.003906c-7.1992-0.48828-13.676-4.5586-17.238-10.832-3.5664-6.2734-3.7422-13.918-0.47656-20.355 3.2695-6.4336 9.5469-10.797 16.715-11.621-1.207-2.5273-1.8242-5.2891-1.8086-8.0898-0.085937-5.1523 1.9258-10.121 5.5703-13.77 3.6445-3.6445 8.6133-5.6562 13.77-5.5703s10.055 2.2578 13.578 6.0234c2.3867-5.457 6.8281-9.7539 12.359-11.957 5.5312-2.207 11.711-2.1406 17.195 0.17578 5.4883 2.3164 9.8398 6.7031 12.113 12.207 1.3242-4.6602 4.1289-8.7656 7.9883-11.691 3.8633-2.9258 8.5703-4.5156 13.418-4.5273 5.4492 0.007812 10.707 2.0078 14.785 5.6289 4.0742 3.6211 6.6836 8.6055 7.332 14.016 2.2695-4.8906 6.5078-8.5859 11.656-10.172 5.1523-1.5898 10.734-0.91797 15.363 1.8477 1.6055 0.99609 3.0469 2.2305 4.2812 3.6641 3.5156-4.668 8.8359-7.6406 14.652-8.1875 5.8203-0.54688 11.598 1.3789 15.926 5.3086 4.3242 3.9297 6.7969 9.4961 6.8086 15.34 0.023438 0.36328 0.023438 0.73047 0 1.0938 5.0508-5.168 11.961-8.1055 19.188-8.1484 7.2305-0.046875 14.176 2.8008 19.289 7.9023 5.1172 5.1055 7.9805 12.047 7.9492 19.273z"/>
 </g>
</svg>
