<?xml version="1.0" encoding="UTF-8"?>
<svg width="752pt" height="752pt" version="1.1" viewBox="0 0 752 752" xmlns="http://www.w3.org/2000/svg">
 <g>
  <path d="m489.59 512.6h-330.99c-2.7109 0.003907-5.2109-1.4688-6.5117-3.8477-1.3203-2.293-1.3203-5.1133 0-7.4023l73.996-119.88c1.3555-2.168 3.7344-3.4805 6.293-3.4766h360.96c2.8906-0.007812 5.5195 1.668 6.7305 4.293 1.1914 2.6406 0.73047 5.7383-1.1836 7.9141l-103.6 119.88 0.003906 0.003907c-1.4375 1.6328-3.5195 2.5547-5.6992 2.5156zm-317.74-14.801h314.41l90.867-105.07h-340.39z"/>
  <path d="m492.92 392.73h-196.09c-4.0859 0-7.3984-3.3164-7.3984-7.4023v-99.156c0-4.0859 3.3125-7.3984 7.3984-7.3984h134.45c2.5547-0.003906 4.9336 1.3086 6.2891 3.4766l61.641 99.156c1.4258 2.2852 1.5 5.1641 0.19141 7.5156-1.3047 2.3555-3.7891 3.8125-6.4805 3.8086zm-188.69-14.801h175.37l-52.465-84.355h-122.91z"/>
  <path d="m471.75 358.69h-117.58c-4.0859 0-7.3984-3.3125-7.3984-7.4023v-37 0.003906c0-4.0898 3.3125-7.4023 7.3984-7.4023h94.57c4.0859 0 7.3984 3.3125 7.3984 7.4023 0 4.0859-3.3125 7.3984-7.3984 7.3984h-87.172v22.199h110.18c4.0859 0 7.3984 3.3125 7.3984 7.3984 0 4.0898-3.3125 7.4023-7.3984 7.4023z"/>
  <path d="m251.84 392.73c-4.0898 0-7.4023-3.3164-7.4023-7.4023v-150.36c0-4.0898 3.3125-7.4023 7.4023-7.4023 4.0859 0 7.3984 3.3125 7.3984 7.4023v150.36c0 4.0859-3.3125 7.4023-7.3984 7.4023z"/>
  <path d="m524.96 471.75h-341.35c-4.0859 0-7.3984-3.3125-7.3984-7.3984 0-4.0898 3.3125-7.4023 7.3984-7.4023h341.35c4.0859 0 7.3984 3.3125 7.3984 7.4023 0 4.0859-3.3125 7.3984-7.3984 7.3984z"/>
  <path d="m204.03 439.2h-45.434c-2.7422-0.023437-5.25-1.5586-6.5117-3.9961-1.3203-2.2891-1.3203-5.1094 0-7.3984l28.785-46.469v-0.003906c1.3555-2.168 3.7344-3.4805 6.2891-3.4766h45.508c2.6953-0.023437 5.1914 1.4219 6.5117 3.7734 1.3242 2.2891 1.3242 5.1094 0 7.3984l-28.859 46.469v0.003906c-1.2969 2.2539-3.6875 3.6562-6.2891 3.6992zm-32.188-14.801h28.117l19.609-31.672-28.043 0.003906z"/>
 </g>
</svg>
